<svg xmlns="http://www.w3.org/2000/svg">
  <symbol id="telega" viewBox="0 0 24 24">
    <path d="M12 24C18.6281 24 24 18.6281 24 12C24 5.37188 18.6281 0 12 0C5.37188 0 0 5.37188 0 12C0 18.6281 5.37188 24 12 24ZM5.48906 11.7422L17.0625 7.27969C17.6016 7.0875 18.0703 7.41094 17.8922 8.22187L15.9234 17.5031C15.7781 18.1594 15.3844 18.3234 14.8406 18.0094L11.8406 15.7969L10.3922 17.1891C10.2328 17.3484 10.0969 17.4844 9.7875 17.4844L9.99844 14.4328L15.5625 9.4125C15.8062 9.20156 15.5063 9.07969 15.1875 9.29062L8.31562 13.6172L5.35312 12.6937C4.71094 12.4875 4.69688 12.0516 5.48906 11.7422Z" />
  </symbol>
  <symbol id="vk" viewBox="0 0 24 24">
    <path d="M12 0C5.37423 0 0 5.37423 0 12C0 18.6258 5.37423 24 12 24C18.6258 24 24 18.6258 24 12C24 5.37423 18.6258 0 12 0ZM18.0859 13.3006C18.6503 13.8405 19.2393 14.3558 19.7301 14.9693C19.9509 15.2393 20.1718 15.5092 20.319 15.8282C20.5399 16.2699 20.3436 16.7607 19.9509 16.7853H17.4969C16.8589 16.8344 16.3681 16.589 15.9264 16.1472C15.5828 15.8037 15.2638 15.4356 14.9448 15.0675C14.8221 14.9202 14.6748 14.773 14.5031 14.6748C14.1595 14.454 13.865 14.5276 13.6933 14.8712C13.4969 15.2393 13.4479 15.6319 13.4233 16.0245C13.3988 16.6135 13.227 16.7607 12.638 16.7853C11.3865 16.8344 10.2086 16.6626 9.12883 16.0245C8.17178 15.4601 7.41104 14.6994 6.77301 13.816C5.49693 12.0982 4.53988 10.2086 3.65644 8.26994C3.46012 7.82822 3.60736 7.60736 4.09816 7.58282C4.90798 7.55828 5.69325 7.55828 6.50307 7.58282C6.82209 7.58282 7.04294 7.77914 7.16564 8.07362C7.60736 9.12883 8.1227 10.1595 8.78528 11.092C8.95705 11.3374 9.15337 11.5828 9.39877 11.7791C9.69325 11.9755 9.88957 11.9018 10.0368 11.5828C10.1104 11.3865 10.1595 11.1656 10.184 10.9448C10.2577 10.2086 10.2577 9.47239 10.135 8.7362C10.0613 8.2454 9.81595 7.95092 9.34969 7.85276C9.10429 7.80368 9.15337 7.73006 9.25153 7.58282C9.44785 7.36196 9.64417 7.21472 10.0123 7.21472H12.7853C13.227 7.31288 13.3252 7.48466 13.3742 7.92638V11.0184C13.3742 11.1902 13.4479 11.7055 13.7669 11.8037C14.0123 11.8773 14.184 11.681 14.3313 11.5337C14.9939 10.8221 15.4601 9.98773 15.9018 9.12883C16.0982 8.7362 16.2454 8.34356 16.4172 7.95092C16.5399 7.65644 16.7117 7.5092 17.0552 7.5092H19.7301C19.8037 7.5092 19.8773 7.5092 19.9755 7.53374C20.4172 7.60736 20.5399 7.80368 20.4172 8.2454C20.1963 8.93251 19.7791 9.52147 19.362 10.0859C18.9202 10.6994 18.4294 11.2883 17.9877 11.9264C17.546 12.5153 17.5706 12.8098 18.0859 13.3006Z" />
  </symbol>
  <symbol id="facebook" viewBox="0 0 24 24">
    <path d="M24 12C24 5.37188 18.6281 0 12 0C5.37188 0 0 5.37188 0 12C0 18.6281 5.37188 24 12 24C12.0703 24 12.1406 24 12.2109 23.9953V14.6578H9.63281V11.6531H12.2109V9.44062C12.2109 6.87656 13.7766 5.47969 16.0641 5.47969C17.1609 5.47969 18.1031 5.55938 18.375 5.59688V8.27813H16.8C15.5578 8.27813 15.3141 8.86875 15.3141 9.73594V11.6484H18.2906L17.9016 14.6531H15.3141V23.5359C20.3297 22.0969 24 17.4797 24 12Z" />
  </symbol>
  <symbol id="insta" viewBox="0 0 24 24">
    <path d="M14.2969 12C14.2969 13.2703 13.2703 14.2969 12 14.2969C10.7297 14.2969 9.70312 13.2703 9.70312 12C9.70312 10.7297 10.7297 9.70312 12 9.70312C13.2703 9.70312 14.2969 10.7297 14.2969 12Z"/>
    <path d="M17.3719 7.93593C17.2594 7.63593 17.0859 7.36405 16.8563 7.14374C16.6359 6.91405 16.3641 6.74061 16.0641 6.62811C15.8203 6.53436 15.4547 6.42186 14.7844 6.38905C14.0578 6.35624 13.8375 6.34686 12 6.34686C10.1578 6.34686 9.94219 6.35155 9.21563 6.38905C8.54531 6.42186 8.17969 6.53436 7.93594 6.62811C7.63594 6.74061 7.36406 6.91405 7.14375 7.14374C6.91406 7.36405 6.74062 7.63593 6.62812 7.93593C6.53437 8.17968 6.42187 8.5453 6.38906 9.21561C6.35625 9.94218 6.34687 10.1578 6.34687 12C6.34687 13.8375 6.35625 14.0578 6.38906 14.7844C6.42187 15.4547 6.52969 15.8203 6.62812 16.0641C6.74062 16.364 6.91406 16.6359 7.14375 16.8562C7.36406 17.0859 7.63594 17.2594 7.93594 17.3719C8.17969 17.4656 8.54531 17.5781 9.21563 17.6109C9.94219 17.6437 10.1578 17.6531 12 17.6531C13.8422 17.6531 14.0578 17.6484 14.7844 17.6109C15.4547 17.5781 15.8203 17.4703 16.0641 17.3719C16.6641 17.1422 17.1422 16.6641 17.3719 16.0641C17.4656 15.8203 17.5781 15.4547 17.6109 14.7844C17.6438 14.0578 17.6531 13.8375 17.6531 12C17.6531 10.1578 17.6484 9.94218 17.6109 9.21561C17.5781 8.5453 17.4656 8.17968 17.3719 7.93593ZM12 15.5391C10.0453 15.5391 8.46094 13.9547 8.46094 12C8.46094 10.0453 10.0453 8.46093 12 8.46093C13.9547 8.46093 15.5391 10.0453 15.5391 12C15.5391 13.9547 13.9547 15.5391 12 15.5391ZM15.6797 9.14999C15.225 9.14999 14.8547 8.77968 14.8547 8.32499C14.8547 7.8703 15.225 7.49999 15.6797 7.49999C16.1344 7.49999 16.5047 7.8703 16.5047 8.32499C16.5047 8.77968 16.1344 9.14999 15.6797 9.14999Z"/>
    <path d="M12 0C5.37188 0 0 5.37188 0 12C0 18.6281 5.37188 24 12 24C18.6281 24 24 18.6281 24 12C24 5.37188 18.6281 0 12 0ZM18.8484 14.8406C18.8156 15.5719 18.6984 16.0734 18.5297 16.5141C18.1734 17.4375 17.4422 18.1734 16.5141 18.5297C16.0781 18.6984 15.5766 18.8156 14.8406 18.8484C14.1047 18.8813 13.8703 18.8906 12 18.8906C10.1297 18.8906 9.89531 18.8813 9.15937 18.8484C8.42812 18.8156 7.92656 18.6984 7.48594 18.5297C7.02656 18.3562 6.60938 18.0844 6.26719 17.7328C5.91562 17.3906 5.64375 16.9734 5.47031 16.5141C5.30156 16.0781 5.18438 15.5766 5.15156 14.8406C5.11875 14.1047 5.10938 13.8703 5.10938 12C5.10938 10.1297 5.11875 9.89531 5.15156 9.15937C5.18438 8.42812 5.30156 7.92656 5.47031 7.48594C5.64375 7.02656 5.91562 6.60938 6.26719 6.26719C6.60938 5.91562 7.02656 5.64375 7.48594 5.47031C7.92656 5.30156 8.42344 5.18438 9.15937 5.15156C9.89531 5.11875 10.1297 5.10938 12 5.10938C13.8703 5.10938 14.1047 5.11875 14.8406 5.15156C15.5719 5.18438 16.0734 5.30156 16.5141 5.47031C16.9734 5.64375 17.3906 5.91562 17.7328 6.26719C18.0844 6.60938 18.3562 7.02656 18.5297 7.48594C18.6984 7.92656 18.8156 8.42344 18.8484 9.15937C18.8813 9.89531 18.8906 10.1297 18.8906 12C18.8906 13.8703 18.8813 14.1047 18.8484 14.8406Z" />
  </symbol>
  <symbol id="gear" viewBox="0 0 54 54">
    <path d="M27,13c-7.72,0-14,6.28-14,14s6.28,14,14,14s14-6.28,14-14S34.72,13,27,13z M27,39c-6.617,0-12-5.383-12-12s5.383-12,12-12
		s12,5.383,12,12S33.617,39,27,39z"/>
	  <path d="M51.22,21h-2.018c-0.515-1.912-1.272-3.742-2.26-5.457l1.426-1.426c0.525-0.525,0.814-1.224,0.814-1.966
		c0-0.743-0.289-1.441-0.814-1.967l-4.553-4.553c-1.05-1.049-2.881-1.051-3.933,0l-1.426,1.426C36.74,6.07,34.911,5.313,33,4.798
		V2.78C33,1.247,31.753,0,30.22,0H23.78C22.247,0,21,1.247,21,2.78v2.018c-1.911,0.515-3.74,1.272-5.457,2.26l-1.426-1.426
		c-1.051-1.052-2.883-1.05-3.933,0l-4.553,4.553c-0.525,0.525-0.814,1.224-0.814,1.967c0,0.742,0.289,1.44,0.814,1.966l1.426,1.426
		C6.07,17.258,5.312,19.088,4.798,21H2.78C1.247,21,0,22.247,0,23.78v6.439C0,31.753,1.247,33,2.78,33h2.018
		c0.515,1.911,1.272,3.74,2.26,5.457l-1.426,1.426c-0.525,0.525-0.814,1.224-0.814,1.966c0,0.743,0.289,1.441,0.814,1.967
		l4.553,4.553c1.05,1.051,2.882,1.052,3.933,0l1.426-1.426c1.717,0.987,3.546,1.745,5.457,2.26v2.018c0,1.533,1.247,2.78,2.78,2.78
		h6.439c1.533,0,2.78-1.247,2.78-2.78v-2.018c1.911-0.515,3.74-1.272,5.457-2.26l1.426,1.426c1.052,1.052,2.882,1.05,3.933,0
		l4.553-4.553c0.525-0.525,0.814-1.224,0.814-1.967c0-0.742-0.289-1.44-0.814-1.966l-1.426-1.426
		c0.987-1.717,1.745-3.546,2.26-5.457h2.018c1.533,0,2.78-1.247,2.78-2.78V23.78C54,22.247,52.753,21,51.22,21z M52,30.22
		C52,30.65,51.65,31,51.22,31h-3.592l-0.18,0.773c-0.521,2.237-1.399,4.36-2.613,6.311l-0.42,0.674l2.539,2.539
		c0.305,0.305,0.305,0.8,0,1.104l-4.553,4.553c-0.304,0.304-0.799,0.306-1.104,0l-2.539-2.539l-0.674,0.42
		c-1.95,1.214-4.073,2.093-6.311,2.613L31,47.628v3.592C31,51.65,30.65,52,30.22,52H23.78C23.35,52,23,51.65,23,51.22v-3.592
		l-0.773-0.18c-2.237-0.521-4.36-1.399-6.311-2.613l-0.674-0.42l-2.539,2.539c-0.306,0.306-0.801,0.304-1.104,0l-4.553-4.553
		c-0.305-0.305-0.305-0.8,0-1.104l2.539-2.539l-0.42-0.674c-1.214-1.95-2.093-4.073-2.613-6.311L6.372,31H2.78
		C2.35,31,2,30.65,2,30.22V23.78C2,23.35,2.35,23,2.78,23h3.592l0.18-0.773c0.521-2.238,1.399-4.361,2.613-6.311l0.42-0.674
		l-2.539-2.539c-0.305-0.305-0.305-0.8,0-1.104l4.553-4.553c0.304-0.304,0.799-0.306,1.104,0l2.539,2.539l0.674-0.42
		c1.95-1.214,4.073-2.093,6.311-2.613L23,6.372V2.78C23,2.35,23.35,2,23.78,2h6.439C30.65,2,31,2.35,31,2.78v3.592l0.773,0.18
		c2.237,0.521,4.36,1.399,6.311,2.613l0.674,0.42l2.539-2.539c0.306-0.306,0.801-0.304,1.104,0l4.553,4.553
		c0.305,0.305,0.305,0.8,0,1.104l-2.539,2.539l0.42,0.674c1.214,1.949,2.093,4.072,2.613,6.311L47.628,23h3.592
		C51.65,23,52,23.35,52,23.78V30.22z"/>
	  <path d="M27,17c-5.514,0-10,4.486-10,10s4.486,10,10,10s10-4.486,10-10S32.514,17,27,17z M27,35c-4.411,0-8-3.589-8-8s3.589-8,8-8
		s8,3.589,8,8S31.411,35,27,35z"/>
  </symbol>
	<symbol id="bluetooth" viewBox="0 0 512 512">
		<path d="M388.38,373.785L280.823,256L388.38,138.228c3.379-3.709,5.102-8.651,4.741-13.662c-0.36-5.016-2.755-9.666-6.641-12.855
			L255.73,4.18c-5.48-4.509-13.057-5.456-19.472-2.419c-6.415,3.024-10.503,9.476-10.503,16.57v177.373l-75.059-82.201
			c-6.819-7.472-18.421-7.998-25.893-1.173c-7.472,6.825-7.998,18.415-1.173,25.893l102.125,111.84v11.877L123.631,373.785
			c-6.831,7.466-6.305,19.063,1.173,25.893c7.478,6.831,19.069,6.305,25.893-1.179l75.053-82.189v177.361
			c0,7.087,4.094,13.545,10.503,16.576c2.493,1.173,5.169,1.754,7.827,1.754c4.173,0,8.303-1.418,11.651-4.167L386.48,400.301
			c3.886-3.195,6.281-7.845,6.641-12.855C393.481,382.436,391.771,377.493,388.38,373.785z M262.414,57.139l85.873,70.617
			l-85.873,94.042V57.139z M262.414,454.862V290.209l85.873,94.036L262.414,454.862z"/>
	</symbol>
	<symbol id="road" viewBox="0 0 512 512">
		<path d="M112,96C50.24,96,0,146.24,0,208c0,57.472,89.856,159.264,100.096,170.688c3.04,3.36,7.36,5.312,11.904,5.312
			s8.864-1.952,11.904-5.312C134.144,367.264,224,265.472,224,208C224,146.24,173.76,96,112,96z M112,343.584
			C77.056,302.144,32,238.528,32,208c0-44.096,35.904-80,80-80s80,35.904,80,80C192,238.496,146.944,302.144,112,343.584z"/>
		<path d="M112,160c-26.464,0-48,21.536-48,48s21.536,48,48,48s48-21.536,48-48S138.464,160,112,160z M112,224
			c-8.832,0-16-7.168-16-16c0-8.832,7.168-16,16-16c8.832,0,16,7.168,16,16C128,216.832,120.832,224,112,224z"/>
		<path d="M496,0H368c-8.832,0-16,7.168-16,16v96v64c0,8.832,7.168,16,16,16c8.832,0,16-7.168,16-16v-48h112c8.832,0,16-7.168,16-16
			V16C512,7.168,504.832,0,496,0z M480,96h-96V32h96V96z"/>
			<path d="M448,352H288c-17.632,0-32-14.368-32-32c0-17.632,14.368-32,32-32h34.944c6.624,18.592,24.224,32,45.056,32
			c26.464,0,48-21.536,48-48s-21.536-48-48-48c-20.832,0-38.432,13.408-45.056,32H288c-35.296,0-64,28.704-64,64
			c0,35.296,28.704,64,64,64h160c17.632,0,32,14.368,32,32c0,17.632-14.368,32-32,32H157.056c-6.624-18.592-24.224-32-45.056-32
			c-26.464,0-48,21.536-48,48s21.536,48,48,48c20.832,0,38.432-13.408,45.056-32H448c35.296,0,64-28.704,64-64
			C512,380.704,483.296,352,448,352z M368,256c8.832,0,16,7.168,16,16c0,8.832-7.168,16-16,16c-8.832,0-16-7.168-16-16
			C352,263.168,359.168,256,368,256z M112,480c-8.832,0-16-7.168-16-16c0-8.832,7.168-16,16-16c8.832,0,16,7.168,16,16
			C128,472.832,120.832,480,112,480z"/>	
	</symbol>
	<symbol id="charger" viewBox="0 0 510 510" >
		<path d="m469.2 153.583v-44.653c0-8.284-6.716-15-15-15h-69.66c-8.284 0-15 6.716-15 15v44.653c-7.65.684-13.649 7.104-13.649 14.932v80.658c0 18.379 14.953 33.331 33.332 33.331h15.147v159.796c0 20.788-16.917 37.7-37.71 37.7h-163.97c-20.788 0-37.7-16.912-37.7-37.7v-32.3h31.9c8.284 0 15-6.716 15-15v-48.667h15.933c24.813 0 45-20.187 45-45v-136.046c0-20.233-13.425-37.386-31.833-43.03v-51.437c0-8.284-6.716-15-15-15h-20.99v-40.82c0-8.284-6.716-15-15-15s-15 6.716-15 15v40.82h-50.02v-40.82c0-8.284-6.716-15-15-15s-15 6.716-15 15v40.82h-20.99c-8.284 0-15 6.716-15 15v51.437c-18.409 5.644-31.833 22.796-31.833 43.03v136.046c0 24.813 20.187 45 45 45h15.933v48.667c0 8.284 6.716 15 15 15h31.9v32.3c0 37.33 30.37 67.7 67.7 67.7h163.97c37.335 0 67.71-30.37 67.71-67.7v-159.796h15.142c18.379 0 33.332-14.952 33.332-33.331v-80.658c0-7.827-5.997-14.245-13.644-14.932zm-258.21-67.763v34.467h-122v-34.467zm-153.834 215.513v-136.046c0-8.271 6.729-15 15-15h155.667c8.271 0 15 6.729 15 15v136.046c0 8.271-6.729 15-15 15-6.286 0-148.508 0-155.667 0-8.271 0-15-6.729-15-15zm60.934 45h63.8v33.667h-63.8zm321.11-222.403v29.585h-39.66v-29.585zm13.644 125.243c0 1.837-1.495 3.331-3.332 3.331-1.835 0-43.311 0-60.289 0-1.837 0-3.332-1.494-3.332-3.331v-65.658h66.953z"/><path d="m130.98 248.31h15.217l-6.632 15.381c-3.28 7.607.228 16.434 7.834 19.714 7.619 3.282 16.437-.236 19.713-7.835l15.661-36.32c4.27-9.902-3.014-20.939-13.774-20.939h-15.217l6.632-15.38c3.28-7.607-.228-16.434-7.834-19.714-7.609-3.279-16.434.229-19.713 7.835l-15.661 36.319c-4.27 9.901 3.014 20.939 13.774 20.939z"/>
	</symbol>
	<symbol id="kg" viewBox="-6 0 512 512">
		<path d="m427.863281 136.527344h-114.414062c12.054687-14.445313 19.324219-33.019532 19.324219-53.261719 0-45.914063-37.351563-83.265625-83.261719-83.265625-45.914063 0-83.265625 37.351562-83.265625 83.265625 0 20.242187 7.269531 38.816406 19.324218 53.261719h-114.414062l-71.15625 375.472656h499.019531zm-178.351562-106.527344c29.367187 0 53.261719 23.894531 53.261719 53.265625 0 29.367187-23.894532 53.261719-53.261719 53.261719-29.371094 0-53.265625-23.894532-53.265625-53.261719 0-29.371094 23.894531-53.265625 53.265625-53.265625zm-153.507813 136.527344h307.011719l59.785156 315.472656h-426.582031zm0 0"/><path d="m250.117188 264.589844h-34.050782l-47.605468 47.539062v-47.539062h-24.46875v119.890625h24.46875v-40.976563l12.339843-12.03125 37.292969 53.007813h31.585938l-51.40625-69.820313zm0 0"/><path d="m298.527344 341.347656h32.332031v13.148438c-2.597656 1.894531-6.136719 3.753906-10.554687 5.539062-5.375 2.175782-10.960938 3.277344-16.59375 3.277344-6.449219 0-12.621094-1.441406-18.351563-4.285156-5.523437-2.738282-9.625-6.832032-12.53125-12.519532-3-5.863281-4.519531-13.382812-4.519531-22.347656 0-7.261718 1.289062-14.070312 3.816406-20.214844 1.429688-3.417968 3.464844-6.601562 6.050781-9.472656 2.464844-2.734375 5.820313-5 9.964844-6.730468 4.222656-1.761719 9.382813-2.65625 15.34375-2.65625 4.855469 0 9.304687.839843 13.222656 2.496093 3.726563 1.574219 6.585938 3.640625 8.496094 6.136719 2.070313 2.703125 3.863281 6.601562 5.332031 11.589844l1.375 4.667968 22.527344-6.179687-1.214844-4.722656c-2.066406-8.046875-5.175781-14.722657-9.246094-19.851563-4.175781-5.261718-9.945312-9.394531-17.15625-12.285156-6.984374-2.800781-14.859374-4.21875-23.410156-4.21875-11.726562 0-22.28125 2.46875-31.371094 7.335938-9.304687 4.984374-16.523437 12.683593-21.441406 22.882812-4.785156 9.914062-7.207031 20.71875-7.207031 32.125 0 11.546875 2.453125 22.179688 7.300781 31.597656 4.957032 9.640625 12.390625 17.105469 22.101563 22.191406 9.503906 4.980469 20.183593 7.507813 31.742187 7.507813 8.566406 0 17.03125-1.558594 25.160156-4.636719 8.050782-3.042968 15.945313-7.628906 23.464844-13.625l1.871094-1.488281v-48.164063l-56.503906.089844zm0 0"/>
	</symbol>
	<symbol id="patent"	viewBox="0 -38 512 512">
		<path d="m512 0h-512v372.167969h314.972656v64.589843l55.980469-27.34375 55.980469 27.34375v-64.589843h85.066406zm-141.046875 312.144531c-28.125 0-51-22.878906-51-51 0-28.121093 22.875-51 51-51 28.121094 0 51 22.878907 51 51 0 28.121094-22.878906 51-51 51zm0 63.882813-25.980469 12.6875v-50.871094c8.160156 2.773438 16.890625 4.300781 25.980469 4.300781 9.085937 0 17.816406-1.527343 25.980469-4.300781v50.871094zm111.046875-33.859375h-55.066406v-22.566407c15.398437-14.753906 25.019531-35.496093 25.019531-58.457031 0-44.664062-36.335937-81-81-81s-81 36.335938-81 81c0 22.960938 9.617187 43.707031 25.019531 58.457031v22.566407h-284.972656v-312.167969h452zm0 0"/><path d="m60.035156 120.09375h391.929688v30h-391.929688zm0 0"/><path d="m105.070312 60.046875h301.859376v30h-301.859376zm0 0"/><path d="m60.035156 282.121094h145.925782v30h-145.925782zm0 0"/><path d="m60.035156 222.070312h145.925782v30h-145.925782zm0 0"/>
	</symbol>
	<symbol id="play" viewBox="0 0 16 22">
		<path class="st0" d="M0,2.4v17.2c0,1.9,2,3.1,3.5,2L15,13c1.3-0.9,1.3-3,0-3.9L3.5,0.4C2-0.7,0,0.5,0,2.4z"/>
	</symbol>
	<symbol id="volume" viewBox="0 0 18 22">
		<path class="st0" d="M15.9,0.3L7.4,6.6C6.7,6.2,5.9,6,5,6c-2.8,0-5,2.2-5,5s2.2,5,5,5c0.9,0,1.7-0.2,2.4-0.6l8.5,6.4
		c0.9,0.7,2.1,0,2.1-1.1V1.4C18,0.3,16.8-0.4,15.9,0.3z"/>
	</symbol>

</svg>